<svg width="24" height="25" viewBox="0 0 24 25" fill="none" xmlns="http://www.w3.org/2000/svg">
<path d="M12 22.8799C17.5228 22.8799 22 18.4027 22 12.8799C22 7.35703 17.5228 2.87988 12 2.87988C6.47715 2.87988 2 7.35703 2 12.8799C2 18.4027 6.47715 22.8799 12 22.8799Z" stroke="white" stroke-linecap="round" stroke-linejoin="round"/>
<path d="M14.3334 19.8799V18.0169C14.3584 17.7074 14.3155 17.3962 14.2074 17.1041C14.0994 16.812 13.9287 16.5456 13.7068 16.3227C15.8001 16.0955 18.0001 15.323 18.0001 11.7788C17.9999 10.8724 17.6419 10.0009 17.0001 9.34449C17.304 8.55159 17.2825 7.67516 16.9401 6.89727C16.9401 6.89727 16.1534 6.67008 14.3334 7.85799C12.8054 7.45476 11.1948 7.45476 9.66672 7.85799C7.84672 6.67008 7.06005 6.89727 7.06005 6.89727C6.71763 7.67516 6.69615 8.55159 7.00005 9.34449C6.35347 10.0058 5.99507 10.8852 6.00005 11.7982C6.00005 15.3165 8.20005 16.089 10.2934 16.3421C10.0741 16.5628 9.90489 16.826 9.79692 17.1146C9.68895 17.4031 9.64459 17.7105 9.66672 18.0169V19.8799" stroke="white" stroke-linecap="round" stroke-linejoin="round"/>
<path d="M9.66667 18.5817C7.66667 19.2134 6 18.5817 5 16.6343" stroke="white" stroke-linecap="round" stroke-linejoin="round"/>
</svg>
