<svg width="25" height="24" viewBox="0 0 25 24" fill="none" xmlns="http://www.w3.org/2000/svg">
<path d="M16.4989 2C16.8621 4.17921 14.5868 5.83084 13.3147 6.57142C12.9395 6.78988 12.5161 6.5117 12.5808 6.08234C12.7982 4.63878 13.593 2.00008 16.4989 2Z" stroke="white" stroke-width="2"/>
<path d="M9.49805 6.5C10.3948 6.5 11.1885 6.69941 11.7925 6.92013C12.5543 7.19855 13.4417 7.19854 14.2035 6.92012C14.8074 6.6994 15.6012 6.5 16.4979 6.5C17.5832 6.5 18.9629 7.08889 19.9979 8.26666C16.498 11 17.498 15.5 20.767 16.6916C19.7233 19.5592 17.7393 21.5 15.9979 21.5C14.4979 21.5 14.498 20.8 12.998 20.8C11.498 20.8 11.498 21.5 9.99805 21.5C7.49805 21.5 4.49805 17.5 4.49805 12.5C4.49805 8.5 7.49805 6.5 9.49805 6.5Z" stroke="white" stroke-width="2"/>
</svg>
