<svg width="24" height="25" viewBox="0 0 24 25" fill="none" xmlns="http://www.w3.org/2000/svg">
<path d="M14 12.8799L10.5 14.8799V10.8799L14 12.8799Z" fill="white" stroke="white" stroke-linecap="round" stroke-linejoin="round"/>
<path d="M2 13.5874V12.1723C2 9.27694 2 7.82928 2.90549 6.89781C3.81099 5.96634 5.23656 5.92602 8.08769 5.84538C9.43873 5.80717 10.8188 5.77979 12 5.77979C13.1812 5.77979 14.5613 5.80717 15.9123 5.84538C18.7634 5.92602 20.189 5.96634 21.0945 6.89781C22 7.82928 22 9.27694 22 12.1723V13.5874C22 16.4827 22 17.9304 21.0945 18.8618C20.189 19.7933 18.7635 19.8336 15.9124 19.9143C14.5613 19.9525 13.1812 19.9799 12 19.9799C10.8188 19.9799 9.43867 19.9525 8.0876 19.9143C5.23651 19.8336 3.81097 19.7933 2.90548 18.8618C2 17.9304 2 16.4827 2 13.5874Z" stroke="white"/>
</svg>
