<svg width="160" height="44" viewBox="0 0 160 44" fill="none" xmlns="http://www.w3.org/2000/svg">
<path d="M16.0033 8.42236C14.2523 8.42236 12.5185 8.76724 10.9008 9.4373C9.28313 10.1074 7.81328 11.0895 6.57516 12.3276C4.07468 14.8281 2.66992 18.2195 2.66992 21.7557C2.66992 27.649 6.49659 32.649 11.7899 34.4224C12.4566 34.529 12.6699 34.1157 12.6699 33.7557V31.5024C8.97659 32.3024 8.18992 29.7157 8.18992 29.7157C7.57659 28.169 6.70992 27.7557 6.70992 27.7557C5.49659 26.929 6.80325 26.9557 6.80325 26.9557C8.13659 27.049 8.84326 28.329 8.84326 28.329C10.0033 30.3557 11.9633 29.7557 12.7233 29.4357C12.8433 28.569 13.1899 27.9824 13.5633 27.649C10.6033 27.3157 7.49659 26.169 7.49659 21.089C7.49659 19.609 8.00325 18.4224 8.86992 17.4757C8.73659 17.1424 8.26992 15.7557 9.00325 13.9557C9.00325 13.9557 10.1233 13.5957 12.6699 15.3157C13.7233 15.0224 14.8699 14.8757 16.0033 14.8757C17.1366 14.8757 18.2833 15.0224 19.3366 15.3157C21.8833 13.5957 23.0033 13.9557 23.0033 13.9557C23.7366 15.7557 23.2699 17.1424 23.1366 17.4757C24.0033 18.4224 24.5099 19.609 24.5099 21.089C24.5099 26.1824 21.3899 27.3024 18.4166 27.6357C18.8966 28.049 19.3366 28.8624 19.3366 30.1024V33.7557C19.3366 34.1157 19.5499 34.5424 20.2299 34.4224C25.5233 32.6357 29.3366 27.649 29.3366 21.7557C29.3366 20.0047 28.9917 18.2709 28.3216 16.6533C27.6516 15.0356 26.6695 13.5657 25.4313 12.3276C24.1932 11.0895 22.7234 10.1074 21.1057 9.4373C19.488 8.76724 17.7542 8.42236 16.0033 8.42236Z" fill="#1A1A1C"/>
<path d="M60.1222 17.4363C59.9091 16.746 59.6151 16.1281 59.2401 15.5826C58.8736 15.0286 58.4304 14.5556 57.9105 14.1636C57.3991 13.7715 56.8111 13.4775 56.1463 13.2815C55.4815 13.0769 54.7571 12.9747 53.973 12.9747C52.5668 12.9747 51.3139 13.3283 50.2145 14.0357C49.1151 14.7431 48.25 15.7829 47.6193 17.1551C46.9972 18.5187 46.6861 20.1806 46.6861 22.1408C46.6861 24.1181 46.9972 25.7928 47.6193 27.165C48.2415 28.5372 49.1065 29.5812 50.2145 30.2971C51.3224 31.0045 52.6094 31.3582 54.0753 31.3582C55.4048 31.3582 56.5554 31.1025 57.527 30.5911C58.5071 30.0798 59.2614 29.3553 59.7898 28.4178C60.3182 27.4718 60.5824 26.3639 60.5824 25.094L61.6562 25.2602H54.5483V21.5528H65.1719V24.6977C65.1719 26.9391 64.6946 28.8781 63.7401 30.5144C62.7855 32.1508 61.473 33.4122 59.8026 34.2985C58.1321 35.1764 56.2145 35.6153 54.0497 35.6153C51.6378 35.6153 49.5199 35.0741 47.696 33.9917C45.8807 32.9008 44.4616 31.3539 43.4389 29.3511C42.4247 27.3397 41.9176 24.9533 41.9176 22.192C41.9176 20.0783 42.2159 18.1906 42.8125 16.5286C43.4176 14.8667 44.2614 13.4562 45.3438 12.2971C46.4261 11.1295 47.696 10.2431 49.1534 9.63801C50.6108 9.02437 52.196 8.71755 53.9091 8.71755C55.358 8.71755 56.7088 8.93062 57.9616 9.35676C59.2145 9.77437 60.3267 10.371 61.2983 11.1465C62.2784 11.9221 63.0838 12.8426 63.7145 13.9079C64.3452 14.9732 64.7585 16.1494 64.9545 17.4363H60.1222ZM70.0641 35.2573V15.621H74.6919V35.2573H70.0641ZM72.3908 12.834C71.6578 12.834 71.0272 12.5911 70.4988 12.1053C69.9703 11.611 69.7061 11.0187 69.7061 10.3283C69.7061 9.62948 69.9703 9.03715 70.4988 8.55136C71.0272 8.05704 71.6578 7.80988 72.3908 7.80988C73.1323 7.80988 73.763 8.05704 74.2828 8.55136C74.8113 9.03715 75.0755 9.62948 75.0755 10.3283C75.0755 11.0187 74.8113 11.611 74.2828 12.1053C73.763 12.5911 73.1323 12.834 72.3908 12.834ZM88.5362 15.621V19.2005H77.2479V15.621H88.5362ZM80.0348 10.9164H84.6626V29.3511C84.6626 29.9732 84.7564 30.4505 84.9439 30.7829C85.1399 31.1068 85.3956 31.3283 85.7109 31.4477C86.0263 31.567 86.3757 31.6266 86.7592 31.6266C87.049 31.6266 87.3132 31.6053 87.5518 31.5627C87.799 31.5201 87.9865 31.4818 88.1143 31.4477L88.8942 35.0656C88.647 35.1508 88.2933 35.2445 87.8331 35.3468C87.3814 35.4491 86.8274 35.5087 86.1712 35.5258C85.0121 35.5599 83.968 35.3852 83.039 35.0016C82.1101 34.6096 81.3729 34.0045 80.8274 33.1863C80.2905 32.3681 80.0263 31.3454 80.0348 30.1181V10.9164ZM92.313 35.2573V9.07551H97.0559V20.1593H109.188V9.07551H113.944V35.2573H109.188V24.1352H97.0559V35.2573H92.313ZM130.693 26.9988V15.621H135.321V35.2573H130.834V31.7673H130.629C130.186 32.8667 129.457 33.7658 128.443 34.4647C127.437 35.1636 126.197 35.513 124.723 35.513C123.436 35.513 122.298 35.2275 121.31 34.6565C120.33 34.0769 119.562 33.2374 119.008 32.138C118.455 31.0301 118.178 29.692 118.178 28.1238V15.621H122.805V27.4079C122.805 28.6522 123.146 29.6408 123.828 30.3738C124.51 31.1068 125.405 31.4732 126.513 31.4732C127.195 31.4732 127.855 31.307 128.494 30.9747C129.133 30.6423 129.658 30.1479 130.067 29.4917C130.484 28.8269 130.693 27.996 130.693 26.9988ZM139.564 35.2573V9.07551H144.192V18.8681H144.384C144.623 18.3908 144.959 17.8837 145.394 17.3468C145.829 16.8014 146.417 16.3369 147.158 15.9533C147.9 15.5613 148.846 15.3653 149.996 15.3653C151.513 15.3653 152.881 15.7531 154.1 16.5286C155.327 17.2957 156.299 18.4335 157.015 19.942C157.739 21.442 158.101 23.2829 158.101 25.4647C158.101 27.621 157.748 29.4533 157.04 30.9619C156.333 32.4704 155.37 33.621 154.151 34.4136C152.932 35.2062 151.552 35.6025 150.009 35.6025C148.884 35.6025 147.951 35.415 147.209 35.04C146.468 34.665 145.871 34.2133 145.42 33.6849C144.976 33.1479 144.631 32.6408 144.384 32.1636H144.116V35.2573H139.564ZM144.103 25.4391C144.103 26.709 144.282 27.8212 144.64 28.7758C145.006 29.7303 145.53 30.4761 146.212 31.013C146.902 31.5414 147.738 31.8056 148.718 31.8056C149.741 31.8056 150.597 31.5329 151.287 30.9874C151.978 30.4335 152.498 29.6792 152.847 28.7247C153.205 27.7616 153.384 26.6664 153.384 25.4391C153.384 24.2204 153.209 23.138 152.86 22.192C152.51 21.246 151.991 20.5045 151.3 19.9676C150.61 19.4306 149.749 19.1622 148.718 19.1622C147.729 19.1622 146.89 19.4221 146.199 19.942C145.509 20.4619 144.985 21.1906 144.627 22.1281C144.277 23.0656 144.103 24.1693 144.103 25.4391Z" fill="#1A1A1C"/>
</svg>
