<svg width="181" height="44" viewBox="0 0 181 44" fill="none" xmlns="http://www.w3.org/2000/svg">
<g clip-path="url(#clip0_908_3871)">
<path d="M31.2913 14.0182C31.1078 13.3399 30.7497 12.7215 30.2529 12.2246C29.756 11.7277 29.1376 11.3696 28.4593 11.186C25.9761 10.5088 15.9818 10.5088 15.9818 10.5088C15.9818 10.5088 5.98707 10.5293 3.50382 11.2065C2.82551 11.3901 2.20713 11.7482 1.71025 12.2451C1.21338 12.742 0.855348 13.3605 0.671821 14.0388C-0.0793041 18.451 -0.370679 25.1743 0.692446 29.41C0.875992 30.0883 1.23403 30.7067 1.7309 31.2036C2.22778 31.7005 2.84615 32.0586 3.52445 32.2422C6.0077 32.9194 16.0022 32.9194 16.0022 32.9194C16.0022 32.9194 25.9966 32.9194 28.4797 32.2422C29.158 32.0586 29.7764 31.7006 30.2733 31.2037C30.7702 30.7068 31.1283 30.0884 31.3118 29.41C32.1041 24.9915 32.3482 18.2724 31.2913 14.0182Z" fill="#FF0000"/>
<path d="M12.8027 26.5156L21.0937 21.7134L12.8027 16.9111V26.5156Z" fill="white"/>
</g>
<path d="M40.7926 9.07697H46.1491L52.554 20.6594H52.8097L59.2145 9.07697H64.571L55.0469 25.4917V35.2588H50.3168V25.4917L40.7926 9.07697ZM71.9146 35.6423C69.997 35.6423 68.335 35.2204 66.9288 34.3767C65.5225 33.5329 64.4316 32.3525 63.6561 30.8355C62.889 29.3184 62.5055 27.5457 62.5055 25.5173C62.5055 23.4889 62.889 21.7119 63.6561 20.1863C64.4316 18.6608 65.5225 17.4761 66.9288 16.6324C68.335 15.7886 69.997 15.3667 71.9146 15.3667C73.8322 15.3667 75.4941 15.7886 76.9004 16.6324C78.3066 17.4761 79.3933 18.6608 80.1603 20.1863C80.9359 21.7119 81.3237 23.4889 81.3237 25.5173C81.3237 27.5457 80.9359 29.3184 80.1603 30.8355C79.3933 32.3525 78.3066 33.5329 76.9004 34.3767C75.4941 35.2204 73.8322 35.6423 71.9146 35.6423ZM71.9402 31.9349C72.9799 31.9349 73.8492 31.6494 74.5481 31.0784C75.247 30.4988 75.7669 29.7233 76.1078 28.7517C76.4572 27.7801 76.6319 26.6977 76.6319 25.5045C76.6319 24.3028 76.4572 23.2162 76.1078 22.2446C75.7669 21.2645 75.247 20.4846 74.5481 19.9051C73.8492 19.3255 72.9799 19.0358 71.9402 19.0358C70.8748 19.0358 69.9885 19.3255 69.2811 19.9051C68.5822 20.4846 68.0581 21.2645 67.7086 22.2446C67.3677 23.2162 67.1973 24.3028 67.1973 25.5045C67.1973 26.6977 67.3677 27.7801 67.7086 28.7517C68.0581 29.7233 68.5822 30.4988 69.2811 31.0784C69.9885 31.6494 70.8748 31.9349 71.9402 31.9349ZM97.0472 27.0003V15.6224H101.675V35.2588H97.1878V31.7687H96.9833C96.5401 32.8682 95.8114 33.7673 94.7972 34.4662C93.7915 35.165 92.5515 35.5145 91.077 35.5145C89.7901 35.5145 88.6523 35.229 87.6637 34.6579C86.6836 34.0784 85.9165 33.2389 85.3626 32.1395C84.8086 31.0315 84.5316 29.6934 84.5316 28.1253V15.6224H89.1594V27.4094C89.1594 28.6537 89.5003 29.6423 90.1822 30.3753C90.864 31.1082 91.7589 31.4747 92.8668 31.4747C93.5486 31.4747 94.2091 31.3085 94.8484 30.9761C95.4876 30.6437 96.0117 30.1494 96.4208 29.4932C96.8384 28.8284 97.0472 27.9974 97.0472 27.0003ZM115.519 15.6224V19.202H104.231V15.6224H115.519ZM107.018 10.9179H111.646V29.3525C111.646 29.9747 111.74 30.452 111.927 30.7844C112.123 31.1082 112.379 31.3298 112.694 31.4491C113.009 31.5684 113.359 31.6281 113.742 31.6281C114.032 31.6281 114.296 31.6068 114.535 31.5642C114.782 31.5216 114.97 31.4832 115.097 31.4491L115.877 35.067C115.63 35.1523 115.276 35.246 114.816 35.3483C114.365 35.4506 113.811 35.5102 113.154 35.5273C111.995 35.5613 110.951 35.3866 110.022 35.0031C109.093 34.6111 108.356 34.0059 107.811 33.1878C107.274 32.3696 107.009 31.3469 107.018 30.1196V10.9179ZM131.185 27.0003V15.6224H135.813V35.2588H131.326V31.7687H131.121C130.678 32.8682 129.95 33.7673 128.935 34.4662C127.93 35.165 126.69 35.5145 125.215 35.5145C123.928 35.5145 122.79 35.229 121.802 34.6579C120.822 34.0784 120.055 33.2389 119.501 32.1395C118.947 31.0315 118.67 29.6934 118.67 28.1253V15.6224H123.298V27.4094C123.298 28.6537 123.638 29.6423 124.32 30.3753C125.002 31.1082 125.897 31.4747 127.005 31.4747C127.687 31.4747 128.347 31.3085 128.986 30.9761C129.626 30.6437 130.15 30.1494 130.559 29.4932C130.977 28.8284 131.185 27.9974 131.185 27.0003ZM140.057 35.2588V9.07697H144.684V18.8696H144.876C145.115 18.3923 145.451 17.8852 145.886 17.3483C146.321 16.8028 146.909 16.3383 147.65 15.9548C148.392 15.5628 149.338 15.3667 150.488 15.3667C152.005 15.3667 153.373 15.7545 154.592 16.5301C155.819 17.2971 156.791 18.4349 157.507 19.9434C158.231 21.4434 158.594 23.2844 158.594 25.4662C158.594 27.6224 158.24 29.4548 157.532 30.9633C156.825 32.4719 155.862 33.6224 154.643 34.415C153.425 35.2077 152.044 35.604 150.501 35.604C149.376 35.604 148.443 35.4165 147.701 35.0415C146.96 34.6665 146.363 34.2148 145.912 33.6863C145.469 33.1494 145.123 32.6423 144.876 32.165H144.608V35.2588H140.057ZM144.595 25.4406C144.595 26.7105 144.774 27.8227 145.132 28.7773C145.498 29.7318 146.023 30.4775 146.704 31.0145C147.395 31.5429 148.23 31.8071 149.21 31.8071C150.233 31.8071 151.089 31.5344 151.78 30.9889C152.47 30.4349 152.99 29.6807 153.339 28.7261C153.697 27.7631 153.876 26.6679 153.876 25.4406C153.876 24.2219 153.701 23.1395 153.352 22.1934C153.003 21.2474 152.483 20.5059 151.792 19.969C151.102 19.4321 150.241 19.1636 149.21 19.1636C148.221 19.1636 147.382 19.4236 146.692 19.9434C146.001 20.4633 145.477 21.192 145.119 22.1295C144.77 23.067 144.595 24.1707 144.595 25.4406ZM170.501 35.6423C168.532 35.6423 166.832 35.2332 165.4 34.415C163.977 33.5883 162.882 32.4207 162.115 30.9122C161.348 29.3952 160.964 27.6096 160.964 25.5557C160.964 23.5358 161.348 21.7631 162.115 20.2375C162.89 18.7034 163.973 17.5102 165.362 16.6579C166.751 15.7971 168.383 15.3667 170.258 15.3667C171.468 15.3667 172.61 15.5628 173.684 15.9548C174.767 16.3383 175.721 16.9349 176.548 17.7446C177.383 18.5542 178.039 19.5855 178.517 20.8383C178.994 22.0827 179.233 23.5656 179.233 25.2872V26.7062H163.137V23.5869H174.796C174.788 22.7005 174.596 21.9122 174.221 21.2219C173.846 20.523 173.322 19.9733 172.649 19.5727C171.984 19.1721 171.208 18.9719 170.322 18.9719C169.376 18.9719 168.545 19.202 167.829 19.6622C167.113 20.1139 166.555 20.7105 166.154 21.452C165.762 22.1849 165.562 22.9903 165.554 23.8682V26.5912C165.554 27.7332 165.762 28.7133 166.18 29.5315C166.598 30.3412 167.181 30.9633 167.931 31.398C168.681 31.8241 169.559 32.0372 170.565 32.0372C171.238 32.0372 171.848 31.9434 172.393 31.7559C172.939 31.5599 173.412 31.2744 173.812 30.8994C174.213 30.5244 174.515 30.0599 174.72 29.5059L179.041 29.9917C178.768 31.1338 178.248 32.1309 177.481 32.9832C176.723 33.827 175.751 34.4832 174.566 34.952C173.382 35.4122 172.027 35.6423 170.501 35.6423Z" fill="#1A1A1C"/>
<defs>
<clipPath id="clip0_908_3871">
<rect width="32" height="22.5" fill="white" transform="translate(0 10.5088)"/>
</clipPath>
</defs>
</svg>
